# xmcd CD database file
#
# Track frame offsets:
#	150
#	39774
#	60809
#	86817
#	121530
#	148464
#	172009
#	206571
#	231716
#	262618
#	278626
#	313902
#
# Disc length: 4400 seconds
#
# Revision: 0
# Processed by: cddbd v1.5PL3 Copyright (c) Steve Scherf et al.
# Submitted via: CDex 1.50beta9
#
DISCID=a5112e0c
DTITLE=Eiji Kitaura and Yuzuru Sera - Delicious
DYEAR=2002
DGENRE=Jazz
TTITLE0=Days of Wine and Roses
TTITLE1=What a Wonderful World
TTITLE2=Autumn Leaves
TTITLE3=I Thought About You
TTITLE4=My Foolish Heart
TTITLE5=The Girl from Ipanema
TTITLE6=Stardust
TTITLE7=Stella be Starlight
TTITLE8=All My Life
TTITLE9=Heartaches
TTITLE10=Misty
TTITLE11="Dessert"If I Could Be with You
EXTD=YEAR: 2002
EXTT0=
EXTT1=
EXTT2=
EXTT3=
EXTT4=
EXTT5=
EXTT6=
EXTT7=
EXTT8=
EXTT9=
EXTT10=
EXTT11=
PLAYORDER=
